<svg xmlns="http://www.w3.org/2000/svg" viewBox="0 0 512 512" role="img" aria-labelledby="title desc">
  <title id="title">helm-apps icon</title>
  <desc id="desc">Layered deployment library icon with Helm wheel</desc>
  <defs>
    <linearGradient id="bg" x1="0" y1="0" x2="1" y2="1">
      <stop offset="0%" stop-color="#0f172a"/>
      <stop offset="100%" stop-color="#1e293b"/>
    </linearGradient>
    <linearGradient id="layerTop" x1="0" y1="0" x2="1" y2="1">
      <stop offset="0%" stop-color="#38bdf8"/>
      <stop offset="100%" stop-color="#0284c7"/>
    </linearGradient>
    <linearGradient id="layerMid" x1="0" y1="0" x2="1" y2="1">
      <stop offset="0%" stop-color="#22d3ee"/>
      <stop offset="100%" stop-color="#0891b2"/>
    </linearGradient>
    <linearGradient id="layerBase" x1="0" y1="0" x2="1" y2="1">
      <stop offset="0%" stop-color="#67e8f9"/>
      <stop offset="100%" stop-color="#0e7490"/>
    </linearGradient>
    <filter id="shadow" x="-20%" y="-20%" width="140%" height="140%">
      <feDropShadow dx="0" dy="8" stdDeviation="8" flood-color="#020617" flood-opacity="0.35"/>
    </filter>
  </defs>

  <rect width="512" height="512" rx="96" fill="url(#bg)"/>

  <g filter="url(#shadow)">
    <path d="M84 318l172-84 172 84-172 84-172-84z" fill="url(#layerBase)"/>
    <path d="M110 282l146-72 146 72-146 72-146-72z" fill="url(#layerMid)"/>
    <path d="M136 248l120-60 120 60-120 60-120-60z" fill="url(#layerTop)"/>
  </g>

  <g transform="translate(256 192)">
    <circle r="58" fill="#f8fafc" opacity="0.95"/>
    <circle r="42" fill="#0ea5e9"/>
    <circle r="13" fill="#f8fafc"/>
    <g fill="#f8fafc">
      <rect x="-4" y="-66" width="8" height="16" rx="2"/>
      <rect x="-4" y="50" width="8" height="16" rx="2"/>
      <rect x="50" y="-4" width="16" height="8" rx="2"/>
      <rect x="-66" y="-4" width="16" height="8" rx="2"/>
      <rect x="35" y="-50" width="8" height="16" rx="2" transform="rotate(45)"/>
      <rect x="35" y="34" width="8" height="16" rx="2" transform="rotate(135)"/>
      <rect x="-43" y="34" width="8" height="16" rx="2" transform="rotate(-135)"/>
      <rect x="-43" y="-50" width="8" height="16" rx="2" transform="rotate(-45)"/>
    </g>
  </g>

  <path d="M170 356l86 42 86-42" fill="none" stroke="#e0f2fe" stroke-width="8" stroke-linecap="round" opacity="0.8"/>
</svg>
